<svg width="1600" height="485" viewBox="0 0 1600 485" fill="none" xmlns="http://www.w3.org/2000/svg">
<mask id="mask0_7_147" style="mask-type:alpha" maskUnits="userSpaceOnUse" x="0" y="0" width="1600" height="485">
<rect width="1600" height="485" fill="#001C34"/>
</mask>
<g mask="url(#mask0_7_147)">
<path d="M1452.35 -260.44H1436.54H1421.88C1393.88 -260.44 1371.62 -259.08 1347.03 -252.393C1334.42 -248.609 1322.2 -243.838 1310.53 -238.137C1291.07 -229.283 1272.71 -220.906 1250.74 -220.906C1247.08 -220.899 1243.41 -221.132 1239.78 -221.604C1223.56 -223.698 1211.41 -232.259 1199.67 -240.526C1186.49 -249.821 1174.05 -258.603 1156.55 -258.603C1154.94 -258.601 1153.32 -258.528 1151.71 -258.382C1140.95 -257.39 1123.66 -248.719 1106.99 -240.305C1097.97 -235.456 1088.58 -231.16 1078.91 -227.446C1071.06 -224.867 1063.04 -222.743 1054.89 -221.089C1037.6 -217.415 1035.43 -216.056 1027.05 -187.618C1024.75 -179.755 1022.95 -172.407 1021.43 -165.315C1015.39 -138.935 1010.63 -118.249 979.216 -98.519C957.988 -85.1083 931.094 -78.605 897.097 -78.605C863.099 -78.605 827.911 -84.9246 796.706 -90.5461C780.282 -93.4487 764.966 -96.2043 753.552 -97.3065C746.9 -97.9312 736.635 -98.3353 726.124 -98.3353C695.986 -98.3353 660.674 -88.4518 658.211 -74.2695C657.02 -67.5825 662.892 -57.4786 697.464 -47.595L701.283 -46.4928C832.961 -8.72232 924.812 40.6218 1018.31 123.732C1044.05 146.658 1063.76 157.35 1080.26 157.35C1084.11 157.349 1087.92 156.727 1091.51 155.513C1109.05 149.671 1121.82 129.794 1136.68 106.941C1144.32 95.1097 1153.1 81.699 1163.25 68.7659C1211.87 6.86106 1282.5 -38.4702 1363.62 -59.83C1385.71 -65.637 1408.59 -68.6666 1431.61 -68.8317C1502.52 -68.8317 1552.58 -37.7483 1599.96 -5.78299V-8.0977C1552.66 -39.9528 1502.61 -70.5586 1431.61 -70.5586C1408.34 -70.377 1385.21 -67.2979 1362.88 -61.4099C1281.3 -39.9024 1210.27 5.71418 1161.4 67.9944C1151.09 80.9642 1142.39 94.4116 1134.75 106.279C1120.13 128.912 1107.53 148.459 1090.69 154.043C1087.31 155.155 1083.74 155.727 1080.14 155.733C1064.21 155.733 1044.99 145.225 1019.62 122.666C925.88 39.3358 833.824 -10.1185 701.816 -47.9992L697.957 -49.1015C672.089 -56.4498 658.622 -65.2678 660.1 -73.7184C662.153 -85.5125 693.563 -96.241 726.001 -96.241C736.43 -96.241 746.531 -95.8369 753.182 -95.2123C764.556 -94.1468 779.912 -91.5381 796.172 -88.4518C827.459 -82.9773 862.935 -76.474 896.974 -76.474C931.012 -76.474 958.851 -83.0875 980.407 -96.7187C1012.47 -117.037 1017.36 -138.163 1023.44 -164.948C1025.08 -172.039 1026.72 -179.351 1029.06 -186.993C1037.27 -215.321 1039.08 -215.688 1055.34 -219.179C1063.58 -220.83 1071.68 -222.965 1079.61 -225.572C1089.39 -229.314 1098.87 -233.66 1107.98 -238.578C1123.75 -246.478 1141.57 -255.443 1151.91 -256.398C1153.46 -256.544 1155 -256.617 1156.55 -256.619C1173.31 -256.619 1185.5 -248.021 1198.43 -238.946C1210.38 -230.532 1222.7 -221.824 1239.49 -219.656C1243.23 -219.176 1247.01 -218.93 1250.79 -218.922C1273.25 -218.922 1292.67 -227.776 1311.47 -236.337C1323.06 -241.997 1335.17 -246.73 1347.69 -250.483C1371.99 -257.096 1394.13 -258.456 1421.92 -258.456H1436.54H1452.39C1475.57 -258.668 1498.66 -255.972 1521 -250.446C1548.1 -243.278 1574.51 -234.149 1599.96 -223.147V-225.204C1574.67 -236.12 1548.45 -245.2 1521.53 -252.356C1499.01 -257.94 1475.72 -260.662 1452.35 -260.44Z" fill="#0C2D4B"/>
<path d="M1452.35 -223.441C1417.82 -223.441 1381.07 -217.819 1342.14 -211.867C1298.33 -205.18 1253 -198.273 1204.76 -198.273C1201.27 -198.273 1197.82 -198.273 1194.49 -198.273C1179.86 -198.805 1165.32 -200.477 1151.01 -203.27C1141.43 -205.323 1131.66 -206.553 1121.82 -206.944C1100.51 -206.944 1084.86 -196.877 1067.7 -172.26C1059.62 -159.576 1052.88 -146.241 1047.58 -132.432C1037.28 -108.145 1026.64 -83.0508 1003.07 -68.1705C994.861 -63.0266 979.463 -59.0585 963.04 -54.87C934.298 -47.5216 901.778 -39.218 897.344 -21.8025C891.842 -0.0881161 941.729 29.6359 968.542 45.6553C973.551 48.6314 977.862 51.2033 980.859 53.0036C1012.27 73.6525 1038.34 87.3939 1062.98 87.3939C1066.32 87.3969 1069.66 87.1387 1072.96 86.6223C1092.71 83.4258 1110.61 70.9703 1129.33 47.3454C1183.42 -21.4225 1261.93 -71.7842 1352.08 -95.543C1377.93 -102.272 1404.7 -105.747 1431.61 -105.867C1502.44 -105.867 1554.79 -80.1482 1599.96 -51.7469V-53.1064C1554.79 -81.5444 1502.44 -106.97 1431.61 -106.97C1404.55 -106.789 1377.64 -103.228 1351.67 -96.3881C1261.23 -72.5892 1182.47 -22.0807 1128.22 46.9045C1109.71 70.2722 1092.05 82.5807 1072.67 85.7037C1069.44 86.2189 1066.17 86.4771 1062.9 86.4753C1038.51 86.4753 1012.68 72.8074 981.434 52.3056C978.601 50.4317 974.29 47.8598 969.116 44.9572C942.551 29.1216 893.074 -0.345298 898.411 -21.3615C902.517 -38.079 934.832 -46.2724 963.204 -53.5105C979.628 -57.7358 995.354 -61.7407 1003.61 -66.958C1027.46 -82.0221 1038.18 -107.374 1048.57 -131.77C1053.85 -145.496 1060.55 -158.755 1068.56 -171.378C1085.44 -195.627 1100.84 -205.548 1121.65 -205.548C1131.41 -205.136 1141.1 -203.906 1150.6 -201.873C1164.98 -199.049 1179.62 -197.364 1194.33 -196.84C1197.66 -196.84 1201.1 -196.84 1204.59 -196.84C1252.96 -196.84 1298.33 -203.747 1342.23 -210.471C1381.07 -216.386 1417.74 -222.008 1452.18 -222.008C1471.6 -222.225 1490.95 -219.999 1509.67 -215.394C1540.85 -206.877 1571.09 -195.808 1600 -182.327V-183.576C1571.25 -196.934 1541.17 -207.88 1510.16 -216.276C1491.36 -221.087 1471.9 -223.499 1452.35 -223.441Z" fill="#0C2D4B"/>
<path d="M1544.28 831.817C1551.72 835.272 1560.06 836.883 1568.42 836.483C1579.12 836.359 1589.74 834.849 1599.96 832.001V829.282C1589.77 832.227 1579.14 833.788 1568.42 833.911C1560.61 834.285 1552.82 832.816 1545.84 829.649C1521.74 815.871 1511.06 791.512 1499.77 765.756C1490.04 743.527 1479.98 720.527 1460.4 704.324V703.552H1459.53C1437.07 685.806 1406.77 677.171 1366.94 677.171C1328.1 677.171 1287.25 685.512 1254.44 692.235C1231.98 696.791 1212.64 700.76 1200.16 700.76C1192.85 700.76 1188.38 699.4 1186.53 696.645C1184.11 692.97 1185.95 686.026 1192.03 676.069C1220.4 629.738 1277.68 519.219 1273.74 473.475C1270.62 437.395 1251.24 399.992 1232.47 364.059C1205.29 311.922 1177.25 257.875 1197.57 206.437C1220.89 147.65 1323.59 42.4586 1396.67 33.5304C1401.21 33.0011 1405.77 32.7433 1410.34 32.7588C1457.85 32.7588 1527.41 58.1106 1599.88 94.8155V92.0599C1527.37 55.3182 1457.89 30.1869 1410.34 30.1869C1405.64 30.1649 1400.93 30.435 1396.26 30.9952C1322.35 40.0337 1218.39 146.18 1194.86 205.555C1174.05 258.096 1202.38 312.547 1229.76 365.234C1248.4 401.058 1267.66 438.13 1270.82 473.733C1274.35 514.516 1224.38 617.907 1189.48 674.93C1182.67 685.953 1180.94 693.301 1184.02 698.041C1186.45 701.715 1191.7 703.405 1200.12 703.405C1212.93 703.405 1232.43 699.437 1255.02 694.807C1287.86 688.12 1328.39 679.817 1366.9 679.817C1406.24 679.817 1436.05 688.341 1458.02 705.903C1477.4 721.739 1487.41 744.592 1497.1 766.748C1508.56 792.871 1519.4 817.598 1544.28 831.817Z" fill="#0C2D4B"/>
<path d="M1452.35 -197.722C1420.24 -197.722 1384.64 -192.284 1346.99 -186.699C1301.82 -179.828 1255.47 -172.737 1204.76 -172.737C1201.02 -172.737 1197.33 -172.737 1193.84 -172.737L1184.89 -172.958C1177.21 -172.958 1169.98 -173.325 1163 -173.325C1119.31 -173.325 1092.3 -165.352 1074.43 -123.32C1063.18 -96.7555 1050.41 -66.664 1019.74 -47.2644C1011.08 -41.7532 1002.42 -37.0502 994.738 -32.9352C977 -23.3456 962.998 -15.7768 962.465 -5.30538C962.013 4.32094 972.853 15.8946 997.735 32.2079C1021.55 47.8598 1041.18 55.4654 1057.68 55.4654C1059.16 55.4654 1060.68 55.4654 1062.12 55.4654C1086.1 53.4813 1102.19 35.7351 1122.56 13.2859C1132.59 1.86945 1143.28 -9.07 1154.58 -19.4877C1207.22 -66.8373 1272.41 -101.463 1344.07 -120.123C1372.51 -127.587 1401.98 -131.446 1431.61 -131.587C1501.42 -131.587 1555.37 -108.99 1599.96 -82.8304V-84.1531C1555.37 -110.203 1501.42 -132.689 1431.61 -132.689C1401.86 -132.514 1372.29 -128.619 1343.75 -121.115C1271.89 -102.388 1206.51 -67.6628 1153.72 -20.1858C1142.37 -9.75416 1131.66 1.21038 1121.61 12.6613C1101.41 34.9268 1085.48 52.4893 1061.99 54.4366C1060.6 54.4366 1059.12 54.4366 1057.68 54.4366C1041.46 54.4366 1022.08 47.0883 998.433 31.3996C973.797 15.3067 963.245 4.027 963.696 -5.34213C964.189 -15.1889 977.985 -22.6475 995.395 -32.0534C1003.07 -36.2052 1011.82 -40.9081 1020.48 -46.4193C1051.44 -66.0394 1064.25 -96.3146 1075.58 -123.026C1093.16 -164.176 1119.89 -172.002 1163 -172.002C1169.98 -172.002 1177.21 -171.819 1184.84 -171.635L1193.8 -171.415C1197.33 -171.415 1200.98 -171.415 1204.76 -171.415C1255.55 -171.415 1302.15 -178.542 1347.19 -185.413C1384.81 -191.145 1420.32 -196.436 1452.35 -196.436C1469.08 -196.625 1485.76 -194.733 1501.91 -190.814C1533.73 -182.731 1566.33 -169.394 1599.96 -153.632V-154.881C1566.45 -170.386 1533.98 -183.613 1502.24 -191.623C1486.01 -195.742 1469.22 -197.795 1452.35 -197.722V-197.722Z" fill="#0C2D4B"/>
<path d="M1452.35 -172.26C1422.66 -172.26 1388.21 -167.006 1351.75 -161.421C1305.6 -154.367 1257.85 -147.092 1204.76 -147.092C1200.87 -147.092 1197.01 -147.092 1193.18 -147.092L1184.11 -147.312C1176.67 -147.312 1169.61 -147.68 1163 -147.68C1105.52 -147.68 1102.64 -119.389 1099.6 -89.4073C1097.96 -72.9838 1096.28 -56.0091 1086.14 -41.6431C1082.52 -36.4625 1072.83 -29.9593 1062.57 -23.0518C1040.68 -8.35515 1015.88 8.32558 1027.79 23.9408C1029.62 26.8843 1032.27 29.3583 1035.48 31.127C1038.68 32.8958 1042.34 33.9003 1046.1 34.0448C1050.42 33.9132 1054.64 32.8681 1058.42 30.9952C1077.84 22.0302 1098.58 -4.46052 1115.25 -25.7707C1124.73 -37.8955 1132.9 -48.3301 1137.38 -50.7183C1141.8 -52.8216 1146.79 -53.8001 1151.79 -53.5474H1157.05C1158.81 -53.5474 1160.62 -53.5474 1162.43 -53.5474C1166.12 -53.2781 1169.84 -53.6688 1173.36 -54.697C1176.89 -55.7251 1180.15 -57.3702 1182.96 -59.5363C1190.72 -65.8559 1191.7 -74.233 1192.65 -81.9855C1193.51 -89.3338 1194.29 -95.8739 1199.58 -101.532C1215.6 -118.654 1271.77 -130.632 1308.93 -138.531C1319.89 -140.882 1329.46 -142.866 1336.35 -144.704C1367.31 -152.753 1399.38 -156.896 1431.61 -157.012C1500.27 -157.012 1555.16 -136.878 1599.96 -112.922V-115.09C1555.12 -139.045 1500.22 -159.18 1431.61 -159.18C1399.13 -158.897 1366.84 -154.556 1335.7 -146.283C1328.72 -144.483 1319.27 -142.609 1308.39 -140.148C1268.73 -131.697 1214.41 -120.123 1197.94 -102.524C1192.23 -96.425 1191.37 -89.1134 1190.51 -82.0223C1189.57 -74.0861 1188.7 -66.554 1181.48 -60.7121C1178.88 -58.721 1175.86 -57.2092 1172.61 -56.2634C1169.35 -55.3177 1165.92 -54.9565 1162.51 -55.2008C1160.74 -55.2008 1158.98 -55.2008 1157.21 -55.2008H1151.87C1146.49 -55.4623 1141.14 -54.3945 1136.39 -52.1145C1131.55 -49.5059 1123.67 -39.4386 1113.65 -26.6525C1098 -6.6283 1076.69 20.8178 1057.6 29.5623C1046.02 34.8898 1036.86 32.7955 1029.47 23.0957C1018.68 8.91344 1042.65 -7.17943 1063.8 -21.3985C1074.68 -28.7468 1084.08 -35.0296 1087.9 -40.4674C1098.25 -55.1641 1099.97 -72.5061 1101.66 -89.1501C1104.74 -119.499 1107.36 -145.732 1163 -145.732C1169.61 -145.732 1176.63 -145.732 1184.06 -145.365L1193.1 -145.144C1196.96 -145.144 1200.86 -145.144 1204.76 -145.144C1258.14 -145.144 1305.85 -152.493 1352.12 -159.51C1388.46 -165.058 1422.83 -170.313 1452.35 -170.313C1466.37 -170.5 1480.36 -168.942 1493.9 -165.683C1527.45 -157.306 1563 -141.985 1599.96 -124.238V-126.443C1563 -143.895 1527.9 -158.996 1494.48 -167.557C1480.75 -170.876 1466.57 -172.459 1452.35 -172.26V-172.26Z" fill="#0C2D4B"/>
<path d="M338.058 546.779C370.845 543.45 409.886 508.608 420.345 481.98C438.533 435.735 406.23 398.51 374.985 362.526C344.818 327.763 316.347 294.95 330.197 254.987C342.264 220.185 381.238 201.396 411.779 201.396C428.25 201.396 442.474 206.615 451.877 216.108C463.041 227.374 467.422 244.49 464.56 265.603C454.717 338.143 451.789 417.496 542.2 440.895C552.087 443.52 562.34 444.879 572.653 444.932C610.703 444.932 635.012 425.414 648.686 409.067C674.911 377.691 684.027 330.757 671.344 292.271C660.599 259.655 639.438 228.024 606.695 195.566C557.988 147.311 491.688 105.813 403.963 68.7256L400.175 67.1106C363.271 51.5116 325.111 35.3612 284.926 26.4587C282.547 25.9269 279.905 25.2967 277.087 24.627C264.668 21.6924 249.232 18.0093 235.976 18.0093C231.344 17.9159 226.727 18.5286 222.324 19.8213C216.599 21.653 213.384 25.1588 210.258 28.5465C208.012 31.2913 205.247 33.6642 202.089 35.5581C198.485 37.2285 194.755 38.6699 190.925 39.8715C183.504 42.4319 175.797 45.0908 173.309 47.6315C168.619 52.5555 169.896 55.5098 171.107 58.3854C171.722 59.4382 172.096 60.5905 172.206 61.7744C172.315 62.9583 172.159 64.1498 171.746 65.2789L170.887 67.5636C164.281 85.1124 164.281 85.1124 148.868 89.0909C145.895 89.859 142.262 90.8044 137.858 92.065C125.197 95.6693 120 101.223 114.98 106.6C111.151 111.226 106.235 115.044 100.579 117.787H99.9625C92.0355 117.787 31.9225 121.333 27.2984 134.549C26.0433 138.113 28.7517 141.993 35.3355 146.051C40.6347 149.686 47.1101 151.683 53.7878 151.743C55.7255 151.743 57.465 151.585 59.1605 151.447C60.5272 151.298 61.9016 151.213 63.2782 151.191C68.1224 151.191 73.0107 152.432 79.7267 167.204C81.3781 170.848 82.6552 173.841 83.7122 176.303C88.9087 188.475 89.0629 188.633 102.275 193.675C105.555 194.935 109.629 196.491 114.804 198.618C131.803 205.63 135.282 213.607 139.686 223.691C142.244 230.051 145.589 236.136 149.66 241.831C154.863 248.566 160.761 254.851 167.276 260.601C178.043 270.626 188.216 280.099 191.497 295.915C197.112 323.312 180.487 349.468 161.683 373.654C152.567 385.373 133.828 399.042 113.989 413.498C80.4313 438.019 42.2496 465.83 42.1175 491.611C42.1175 506.324 46.2572 517.609 54.6686 525.094C63.8286 533.327 77.7449 537.344 97.2321 537.344C125.461 537.344 160.186 528.816 190.815 521.292C215.036 515.384 235.734 510.283 249.056 510.283C251.611 510.223 254.163 510.495 256.631 511.09C269.468 514.497 279.663 521.785 289.506 528.816C302.563 538.172 314.916 546.995 332.554 546.995C334.392 547.02 336.23 546.948 338.058 546.779V546.779ZM257.071 509.928C254.461 509.292 251.761 509 249.056 509.061C235.536 509.061 214.618 514.182 190.396 520.13C159.855 527.615 125.263 536.104 97.2321 536.123C78.1853 536.123 64.5993 532.184 55.7475 524.306C47.6444 517.018 43.5708 506.068 43.6589 491.729C43.8791 466.598 81.6644 438.886 115.09 414.542C134.907 400.026 153.822 386.318 163.048 374.422C182.051 349.98 198.83 323.528 193.127 295.639C189.802 279.43 179.475 269.818 168.553 259.636C162.051 253.946 156.154 247.728 150.937 241.063C146.935 235.438 143.641 229.433 141.117 223.159C136.581 212.799 133.014 204.606 115.442 197.358C110.246 195.211 106.172 193.655 102.891 192.395C90.1639 187.53 90.1639 187.53 85.1434 175.791C84.0865 173.31 82.8094 170.336 81.1579 166.672C74.7503 152.57 69.7519 149.793 63.2782 149.793C61.8503 149.813 60.4246 149.899 59.0064 150.049C57.3549 150.187 55.6374 150.344 53.7878 150.344C47.4109 150.296 41.2258 148.388 36.1723 144.908C30.227 141.206 27.7168 137.857 28.7297 134.942C32.7592 123.46 88.7766 119.186 99.9185 119.186H100.469L100.645 118.556L100.975 119.146C106.923 116.321 112.091 112.344 116.103 107.506C121.211 102.031 126.033 96.8904 138.276 93.3846C142.68 92.1437 146.335 91.1983 149.286 90.4302C165.294 86.2941 165.492 86.0775 172.362 68.0166L173.243 65.7319C173.719 64.4439 173.904 63.0839 173.787 61.7313C173.67 60.3788 173.253 59.0606 172.561 57.8536C171.393 55.1356 170.359 52.7918 174.454 48.4982C176.656 46.2135 184.473 43.4955 191.387 41.1123C195.307 39.8831 199.126 38.4088 202.815 36.7005C206.147 34.7185 209.068 32.2325 211.447 29.354C214.574 25.9466 217.524 22.7559 222.831 21.0424C227.093 19.8005 231.561 19.2145 236.042 19.3092C249.1 19.3092 264.425 22.9529 276.756 25.8875C279.575 26.5572 282.217 27.1875 284.617 27.7192C324.649 36.5823 362.742 52.6933 399.581 68.2923L403.368 69.8876C490.895 106.915 557.063 148.296 605.616 196.393C638.205 228.713 659.256 260.167 669.935 292.586C682.486 330.678 673.458 377.1 647.519 408.161C634.043 424.272 610.086 443.475 572.653 443.475C562.484 443.434 552.373 442.108 542.619 439.536C453.44 416.472 456.325 337.749 466.079 265.702C469.008 244.194 464.494 226.704 453.022 215.143C443.333 205.295 428.69 199.958 411.779 199.958C380.688 199.958 341.009 219.082 328.722 254.534C314.63 295.167 344.686 329.811 373.774 363.294C404.755 399.002 436.793 435.931 418.892 481.468C408.565 507.742 370.141 542.091 337.882 545.38C336.113 545.559 334.334 545.651 332.554 545.656C315.444 545.656 303.312 536.97 290.474 527.772C280.5 520.682 270.195 513.316 257.071 509.928Z" fill="url(#paint0_linear_7_147)"/>
<path d="M955.32 -128.648C941.401 -119.83 922.472 -115.568 897.056 -115.568C867.329 -115.568 834.112 -121.52 804.795 -126.59C787.55 -129.676 771.208 -132.616 757.905 -133.938C742.735 -135.335 727.496 -136.034 712.246 -136.033C672.254 -136.033 620.929 -131.183 603.725 -108.072C596.211 -98.005 595.924 -85.4026 602.781 -70.5222C606.024 -63.5781 614.401 -59.7569 622.489 -56.1195C628.812 -53.8264 634.501 -50.3283 639.16 -45.8686C643.431 -39.7077 646.603 -32.9892 648.562 -25.9546C651.888 -16.365 655.296 -6.48147 663.057 -0.639545C672.306 6.46382 684.17 10.247 696.356 9.9788C705.552 9.68715 714.696 8.60442 723.661 6.74554C732.489 4.90624 741.496 3.83573 750.555 3.54901C758.393 3.40692 766.15 4.99704 773.138 8.17847C789.562 15.5268 796.337 25.8145 802.988 35.6245C811.652 48.4106 819.823 60.4619 846.758 66.1201C903.174 77.9142 918.613 90.2594 955.936 120.057C960.74 123.731 965.914 128.03 971.58 132.476C983.906 142.772 994.923 154.256 1004.43 166.719C1012.99 177.765 1022.61 188.128 1033.17 197.692C1044.81 207.403 1058.37 215.08 1073.16 220.325C1090.16 227.269 1106.21 233.809 1120.79 256.185L1123.09 259.859C1141.44 288.224 1160.04 314.494 1171.38 314.494C1172.27 314.504 1173.15 314.338 1173.96 314.007C1174.77 313.677 1175.48 313.191 1176.06 312.583C1180.16 308.579 1181.27 297.887 1179.47 279.883C1178.4 269.375 1169.9 259.933 1161.65 250.821C1152.78 241.011 1144.4 231.752 1144.89 221.427C1145.51 209.119 1153.8 203.056 1162.59 196.7C1169.66 192.281 1175.48 186.443 1179.59 179.652C1188.95 161.612 1191.21 145.482 1193.43 129.867C1196.46 108.116 1199.34 87.614 1221.06 64.3932C1261.42 21.9997 1314.89 -8.75864 1374.75 -24.0073C1393.2 -28.9712 1412.35 -31.5689 1431.61 -31.723C1493.2 -31.723 1537.22 -1.77855 1583.95 29.8928L1599.96 40.6949V37.4249C1595.15 34.2283 1590.39 30.995 1585.67 27.7985C1538.57 -4.16675 1494.07 -34.3317 1431.61 -34.3317C1412.14 -34.1836 1392.79 -31.5736 1374.13 -26.5792C1313.74 -11.1997 1259.79 19.8422 1219.09 62.6297C1196.79 86.4015 1193.88 107.308 1190.76 129.426C1188.58 144.858 1186.36 160.804 1177.21 178.44C1173.27 184.869 1167.72 190.391 1160.99 194.569C1152.12 201.072 1142.88 207.759 1142.22 221.207C1141.69 232.413 1150.81 242.517 1159.63 252.254C1167.6 261.072 1175.81 270.183 1176.8 279.957C1178.93 301.083 1176.55 308.321 1174.17 310.673C1173.85 311.007 1173.45 311.275 1173.01 311.459C1172.56 311.643 1172.07 311.738 1171.58 311.738C1160.25 311.738 1136.11 274.372 1125.76 258.389L1123.5 254.715C1108.47 231.605 1091.97 224.918 1074.56 217.79C1060.08 212.672 1046.78 205.198 1035.35 195.745C1024.89 186.273 1015.36 176.022 1006.85 165.102C997.202 152.475 986.02 140.842 973.51 130.418C967.843 126.009 962.67 121.857 957.866 118.036C920.132 87.9079 904.488 75.4525 847.415 63.5115C821.629 58.1104 813.787 46.4633 805.452 34.1181C798.595 24.0141 791.533 13.5428 774.452 5.68003C767.047 2.34098 758.846 0.663876 750.555 0.793379C741.304 1.08512 732.106 2.16783 723.086 4.02667C714.313 5.86338 705.361 6.93389 696.356 7.22318C684.844 7.49164 673.632 3.91602 664.904 -2.80729C657.801 -8.17158 654.475 -17.504 651.313 -26.8731C649.285 -34.1952 645.958 -41.179 641.459 -47.5587C636.572 -52.3872 630.52 -56.1566 623.762 -58.5812C615.55 -62.2554 608.242 -65.5988 605.409 -71.698C598.921 -85.7333 599.126 -97.4172 606.066 -106.823C622.489 -128.868 672.911 -133.644 712.205 -133.644C727.29 -133.647 742.365 -132.96 757.371 -131.587C770.592 -130.301 786.852 -127.398 804.056 -124.239C833.496 -118.985 866.836 -112.996 896.851 -112.996C922.719 -112.996 942.345 -117.405 956.757 -126.553C992.685 -149.26 982.379 -183.54 972.442 -216.717C961.767 -252.136 950.763 -288.768 995.025 -312.65C1001.48 -315.771 1008.76 -317.27 1016.09 -316.986C1042.57 -316.986 1079.85 -304.016 1115.9 -291.487C1147.32 -280.464 1176.96 -270.287 1196.26 -269.883H1204.47C1245.94 -269.883 1287.86 -276.276 1328.39 -282.485C1368.92 -288.694 1410.71 -295.051 1452.06 -295.051C1479.02 -295.279 1505.87 -292.112 1531.84 -285.645C1555.1 -279.551 1577.86 -272.025 1599.96 -263.122V-265.951C1578.19 -274.642 1555.79 -282.007 1532.91 -287.996C1506.69 -294.536 1479.57 -297.739 1452.35 -297.512C1410.76 -297.512 1368.79 -291.083 1328.23 -284.91C1287.66 -278.737 1246.11 -272.344 1204.76 -272.344C1201.93 -272.344 1199.22 -272.344 1196.55 -272.344C1177.74 -272.749 1148.3 -282.963 1117.18 -293.802C1080.84 -306.404 1043.27 -319.521 1016.29 -319.521C1008.44 -319.84 1000.64 -318.213 993.752 -314.818C947.642 -289.907 958.933 -252.357 969.855 -216.019C979.956 -182.254 989.523 -150.325 955.32 -128.648Z" fill="#0C2D4B"/>
</g>
<defs>
<linearGradient id="paint0_linear_7_147" x1="352" y1="18" x2="345.286" y2="392.832" gradientUnits="userSpaceOnUse">
<stop stop-color="#F59428"/>
<stop offset="1" stop-color="#0C2D4B"/>
</linearGradient>
</defs>
</svg>
