<svg width="236" height="1681" viewBox="0 0 236 1681" fill="none" xmlns="http://www.w3.org/2000/svg">
<path d="M51.6817 1707.88C12.045 1679.22 -34.1596 1665.26 -89.596 1665.26C-140.577 1665.26 -193.947 1676.84 -245.525 1688C-295.772 1698.89 -347.717 1710.1 -395.989 1710.1C-444.949 1710.1 -485.505 1698.41 -519.997 1674.35L-538.966 1661.14L-550.953 1652.73L-550.953 1657.06L-540.619 1664.31L-521.697 1677.53C-486.653 1701.96 -445.546 1713.8 -395.989 1713.8C-347.396 1713.8 -295.312 1702.54 -244.928 1691.65C-193.488 1680.49 -140.256 1668.96 -89.596 1668.96C-34.8026 1668.96 10.8508 1682.71 49.9364 1711.26C76.2078 1730.25 88.8844 1750.23 87.6443 1770.59C87.0792 1777.4 85.2295 1783.99 82.2245 1789.89L85.8071 1789.89C88.6173 1783.92 90.3365 1777.36 90.8592 1770.59C92.0534 1748.75 79.0095 1727.66 51.6817 1707.88Z" fill="#0C2D4B"/>
<path d="M-385.839 1525.5C-347.213 1525.5 -306.106 1517.41 -262.565 1508.85C-213.559 1499.22 -162.853 1489.28 -108.887 1489.28C-104.983 1489.28 -101.125 1489.28 -97.4046 1489.28C-81.041 1490.05 -64.7665 1492.45 -48.7657 1496.47C-38.0515 1499.43 -27.1166 1501.2 -16.1101 1501.76C7.72711 1501.76 25.226 1487.27 44.4244 1451.84C53.4659 1433.59 61.0006 1414.4 66.9296 1394.53C78.4578 1359.57 90.3534 1323.46 116.717 1302.04C125.902 1294.64 143.126 1288.93 161.498 1282.9C193.648 1272.32 230.024 1260.37 234.984 1235.31C241.139 1204.06 185.335 1161.28 155.343 1138.23C149.74 1133.94 144.917 1130.24 141.564 1127.65C106.429 1097.93 77.2637 1078.16 49.7062 1078.16C45.965 1078.15 42.2306 1078.52 38.5455 1079.27C16.4536 1083.87 -3.57148 1101.79 -24.5151 1135.79C-85.0212 1234.76 -172.841 1307.24 -273.68 1341.44C-302.592 1351.12 -332.535 1356.12 -362.645 1356.29C-441.872 1356.29 -500.432 1319.28 -550.954 1278.41L-550.954 1280.36C-500.432 1321.29 -441.872 1357.88 -362.645 1357.88C-332.367 1357.62 -302.268 1352.5 -273.221 1342.65C-172.059 1308.4 -83.9567 1235.71 -23.275 1136.43C-2.56095 1102.8 17.1885 1085.08 38.867 1080.59C42.4751 1079.85 46.133 1079.48 49.798 1079.48C77.0799 1079.48 105.969 1099.15 140.921 1128.66C144.091 1131.35 148.913 1135.05 154.7 1139.23C184.416 1162.02 239.761 1204.43 233.79 1234.68C229.197 1258.74 193.051 1270.53 161.314 1280.94C142.942 1287.02 125.351 1292.79 116.12 1300.3C89.4348 1321.98 77.4474 1358.46 65.8274 1393.57C59.9143 1413.33 52.4266 1432.41 43.4599 1450.58C24.5831 1485.47 7.35958 1499.75 -15.9265 1499.75C-26.8397 1499.16 -37.6806 1497.39 -48.3064 1494.46C-64.3945 1490.4 -80.7627 1487.97 -97.2208 1487.22C-100.941 1487.22 -104.799 1487.22 -108.703 1487.22C-162.807 1487.22 -213.559 1497.16 -262.657 1506.84C-306.106 1515.35 -347.121 1523.44 -385.655 1523.44C-407.37 1523.75 -429.016 1520.55 -449.956 1513.92C-484.835 1501.67 -518.659 1485.73 -551 1466.33L-551 1468.13C-518.836 1487.35 -485.195 1503.11 -450.507 1515.19C-429.48 1522.12 -407.709 1525.59 -385.839 1525.5Z" fill="url(#paint0_linear_14_444)"/>
<path d="M-385.839 1488.49C-349.922 1488.49 -310.102 1480.66 -267.985 1472.63C-217.463 1462.74 -165.609 1452.53 -108.887 1452.53C-104.707 1452.53 -100.574 1452.53 -96.6696 1452.53L-86.6571 1452.85C-78.0684 1452.85 -69.9848 1453.38 -62.1769 1453.38C-13.3084 1453.38 16.9129 1441.9 36.892 1381.41C49.4766 1343.18 63.7605 1299.87 98.0696 1271.96C107.761 1264.02 117.452 1257.26 126.04 1251.33C145.882 1237.53 161.544 1226.64 162.141 1211.57C162.646 1197.71 150.521 1181.06 122.688 1157.58C96.0488 1135.05 74.0946 1124.11 55.6312 1124.11C53.9777 1124.11 52.2783 1124.11 50.6707 1124.11C23.8482 1126.96 5.84396 1152.5 -16.9368 1184.81C-28.1563 1201.24 -40.1142 1216.99 -52.7615 1231.98C-111.636 1300.12 -184.565 1349.96 -264.724 1376.81C-296.534 1387.55 -329.495 1393.11 -362.645 1393.31C-440.724 1393.31 -501.075 1360.79 -550.954 1323.14L-550.954 1325.04C-501.075 1362.53 -440.724 1394.9 -362.645 1394.9C-329.368 1394.64 -296.285 1389.04 -264.357 1378.24C-183.977 1351.29 -110.845 1301.31 -51.797 1232.98C-39.105 1217.97 -27.1158 1202.19 -15.8804 1185.71C6.71667 1153.67 24.5371 1128.39 50.8085 1125.59C52.3701 1125.59 54.0236 1125.59 55.6312 1125.59C73.7731 1125.59 95.4516 1136.17 121.907 1158.74C149.464 1181.9 161.268 1198.14 160.763 1211.62C160.212 1225.79 144.779 1236.53 125.305 1250.06C116.717 1256.04 106.934 1262.81 97.2429 1270.74C62.6124 1298.98 48.2824 1342.55 35.606 1380.99C15.9484 1440.21 -13.9514 1451.47 -62.1769 1451.47C-69.9848 1451.47 -78.0684 1451.21 -86.6112 1450.95L-96.6237 1450.63C-100.574 1450.63 -104.661 1450.63 -108.887 1450.63C-165.701 1450.63 -217.831 1460.89 -268.215 1470.78C-310.286 1479.02 -350.014 1486.64 -385.839 1486.64C-404.554 1486.91 -423.211 1484.19 -441.275 1478.55C-476.87 1466.92 -513.338 1447.72 -550.954 1425.04L-550.954 1426.83C-513.476 1449.15 -477.146 1468.18 -441.643 1479.71C-423.492 1485.64 -404.706 1488.6 -385.839 1488.49Z" fill="#0C2D4B"/>
<path d="M-385.839 1451.84C-352.632 1451.84 -314.097 1444.28 -273.312 1436.25C-221.688 1426.09 -168.273 1415.62 -108.887 1415.62C-104.539 1415.62 -100.221 1415.62 -95.9345 1415.62L-85.7842 1415.94C-77.471 1415.94 -69.5712 1416.47 -62.1766 1416.47C2.12408 1416.47 5.33899 1375.75 8.73774 1332.61C10.5749 1308.97 12.4581 1284.54 23.8026 1263.86C27.8444 1256.41 38.6836 1247.05 50.1659 1237.11C74.646 1215.96 102.387 1191.95 89.0678 1169.48C87.0163 1165.24 84.0565 1161.68 80.4707 1159.14C76.8848 1156.59 72.7923 1155.14 68.5835 1154.94C63.7539 1155.13 59.0321 1156.63 54.8047 1159.32C33.0803 1172.23 9.88599 1210.35 -8.76121 1241.02C-19.3708 1258.47 -28.5106 1273.49 -33.5169 1276.92C-38.4667 1279.95 -44.0422 1281.36 -49.638 1281L-55.517 1281C-57.4919 1281 -59.5128 1281 -61.5336 1281C-65.6666 1280.61 -69.8253 1281.17 -73.7678 1282.65C-77.7102 1284.13 -81.3577 1286.5 -84.4982 1289.62C-93.1788 1298.71 -94.281 1310.77 -95.3374 1321.92C-96.3019 1332.5 -97.1746 1341.91 -103.099 1350.05C-121.012 1374.7 -183.843 1391.93 -225.408 1403.3C-237.672 1406.69 -248.373 1409.54 -256.089 1412.19C-290.719 1423.77 -326.583 1429.73 -362.645 1429.9C-439.438 1429.9 -500.845 1400.92 -550.954 1366.45L-550.954 1369.57C-500.799 1404.04 -439.392 1433.02 -362.645 1433.02C-326.305 1432.61 -290.193 1426.37 -255.354 1414.46C-247.546 1411.87 -236.983 1409.17 -224.811 1405.63C-180.444 1393.47 -119.68 1376.81 -101.262 1351.48C-94.8781 1342.7 -93.9136 1332.18 -92.9491 1321.98C-91.8927 1310.56 -90.9282 1299.72 -82.8447 1291.31C-79.9356 1288.44 -76.5637 1286.27 -72.9223 1284.91C-69.2809 1283.54 -65.4418 1283.02 -61.6255 1283.38C-59.6505 1283.38 -57.6757 1283.38 -55.7007 1283.38L-49.7299 1283.38C-43.7135 1283.75 -37.7232 1282.22 -32.4147 1278.93C-26.995 1275.18 -18.1766 1260.69 -6.96991 1242.29C10.5291 1213.47 34.3662 1173.97 55.7232 1161.39C68.6752 1153.72 78.9174 1156.73 87.1847 1170.69C99.264 1191.1 72.4414 1214.26 48.7879 1234.73C36.6167 1245.3 26.099 1254.35 21.8276 1262.17C10.2534 1283.32 8.32438 1308.28 6.44129 1332.24C2.9966 1375.91 0.0572696 1413.67 -62.1766 1413.67C-69.5712 1413.67 -77.4251 1413.67 -85.7382 1413.14L-95.8427 1412.82C-100.16 1412.82 -104.523 1412.82 -108.887 1412.82C-168.594 1412.82 -221.964 1423.4 -273.726 1433.5C-314.373 1441.48 -352.816 1449.04 -385.839 1449.04C-401.525 1449.31 -417.169 1447.07 -432.319 1442.38C-469.843 1430.32 -509.617 1408.27 -550.954 1382.73L-550.954 1385.91C-509.617 1411.02 -470.348 1432.76 -432.962 1445.08C-417.606 1449.85 -401.744 1452.13 -385.839 1451.84Z" fill="#0C2D4B"/>
<defs>
<linearGradient id="paint0_linear_14_444" x1="-157.773" y1="1525.5" x2="-157.773" y2="1078.16" gradientUnits="userSpaceOnUse">
<stop stop-color="#F69C2C"/>
<stop offset="1" stop-color="#0C2D4B" stop-opacity="0"/>
</linearGradient>
</defs>
</svg>
